%
M48
M72
T01C0.0320
T02C0.0400
T03C0.0512
%
T01
X4420Y2550
X4420Y3880
X5380Y5280
X6380Y5280
X5880Y6030
X8560Y5550
X9560Y5550
X10560Y5550
X11560Y5550
X7420Y3880
X7420Y2550
X8560Y2550
X9560Y2550
X10560Y2550
X11560Y2550
T02
X2810Y1050
X3810Y1050
X4810Y1050
X5810Y1050
X6810Y1050
X7810Y1050
X8810Y1050
X9810Y1050
X10810Y1050
X11810Y1050
X950Y3970
X950Y4970
T03
X1490Y5460
X1490Y3491
M30
