G75*
%MOIN*%
%OFA0B0*%
%FSLAX24Y24*%
%IPPOS*%
%LPD*%
%AMOC8*
5,1,8,0,0,1.08239X$1,22.5*
%
%ADD10C,0.0160*%
%ADD11C,0.0120*%
%ADD12C,0.0100*%
D10*
X001940Y002200D02*
X001987Y002256D01*
X002030Y002314D01*
X002071Y002375D01*
X002108Y002438D01*
X002142Y002502D01*
X002172Y002568D01*
X002199Y002636D01*
X002222Y002705D01*
X002242Y002776D01*
X002257Y002847D01*
X002269Y002919D01*
X002277Y002991D01*
X002281Y003064D01*
X002282Y003137D01*
X002278Y003209D01*
X002271Y003282D01*
X002259Y003354D01*
X002244Y003425D01*
X002225Y003496D01*
X002202Y003565D01*
X002176Y003633D01*
X002146Y003699D01*
X002113Y003764D01*
X002076Y003827D01*
X002036Y003888D01*
X001992Y003946D01*
X001946Y004003D01*
X001897Y004056D01*
X001845Y004107D01*
X001790Y004155D01*
X001733Y004200D01*
X001673Y004242D01*
X001612Y004281D01*
X001548Y004317D01*
X001482Y004349D01*
X001415Y004377D01*
X001347Y004402D01*
X001277Y004423D01*
X001206Y004441D01*
X001135Y004454D01*
X001063Y004464D01*
X000990Y004470D01*
X001062Y004476D01*
X001133Y004486D01*
X001204Y004500D01*
X001274Y004517D01*
X001343Y004538D01*
X001411Y004563D01*
X001478Y004591D01*
X001543Y004622D01*
X001606Y004657D01*
X001668Y004695D01*
X001727Y004737D01*
X001784Y004781D01*
X001839Y004828D01*
X001891Y004878D01*
X001941Y004931D01*
X001987Y004986D01*
X002031Y005043D01*
X002072Y005103D01*
X002109Y005165D01*
X002144Y005229D01*
X002175Y005294D01*
X002202Y005361D01*
X002226Y005429D01*
X002246Y005498D01*
X002263Y005568D01*
X002276Y005640D01*
X002286Y005711D01*
X002291Y005783D01*
X002293Y005856D01*
X002291Y005928D01*
X002285Y006000D01*
X002276Y006071D01*
X002263Y006143D01*
X002246Y006213D01*
X002226Y006282D01*
X002202Y006350D01*
X002174Y006417D01*
X002143Y006482D01*
X002109Y006546D01*
X002071Y006608D01*
X002030Y006667D01*
X001987Y006725D01*
X001940Y006780D01*
D11*
X001140Y003061D02*
X001201Y003042D01*
X001262Y003019D01*
X001321Y002994D01*
X001378Y002964D01*
X001433Y002932D01*
X001487Y002896D01*
X001538Y002857D01*
X001587Y002816D01*
X001634Y002771D01*
X001677Y002724D01*
X001718Y002674D01*
X001756Y002623D01*
X001791Y002569D01*
X001823Y002513D01*
X001851Y002455D01*
X001876Y002396D01*
X001898Y002335D01*
X001916Y002273D01*
X001930Y002210D01*
X001140Y005939D02*
X001201Y005958D01*
X001262Y005981D01*
X001321Y006006D01*
X001378Y006036D01*
X001433Y006068D01*
X001487Y006104D01*
X001538Y006143D01*
X001587Y006184D01*
X001634Y006229D01*
X001677Y006276D01*
X001718Y006326D01*
X001756Y006377D01*
X001791Y006431D01*
X001823Y006487D01*
X001851Y006545D01*
X001876Y006604D01*
X001898Y006665D01*
X001916Y006727D01*
X001930Y006790D01*
D12*
X001180Y005950D02*
X001126Y005952D01*
X001071Y005950D01*
X001017Y005944D01*
X000963Y005935D01*
X000911Y005921D01*
X000859Y005904D01*
X000809Y005883D01*
X000760Y005859D01*
X000713Y005831D01*
X000669Y005800D01*
X000626Y005766D01*
X000587Y005729D01*
X000550Y005689D01*
X000516Y005646D01*
X000485Y005601D01*
X000457Y005554D01*
X000433Y005505D01*
X000412Y005455D01*
X000395Y005403D01*
X000382Y005350D01*
X000373Y005297D01*
X000368Y005243D01*
X000366Y005188D01*
X000368Y005134D01*
X000375Y005080D01*
X000385Y005026D01*
X000399Y004974D01*
X000416Y004922D01*
X000438Y004872D01*
X000463Y004824D01*
X000491Y004777D01*
X000523Y004733D01*
X000557Y004691D01*
X000595Y004651D01*
X000635Y004615D01*
X000678Y004581D01*
X000723Y004551D01*
X000770Y004524D01*
X000819Y004500D01*
X000870Y004480D01*
X000861Y004470D02*
X000812Y004450D01*
X000765Y004426D01*
X000719Y004400D01*
X000676Y004369D01*
X000635Y004336D01*
X000596Y004300D01*
X000561Y004262D01*
X000528Y004221D01*
X000498Y004177D01*
X000471Y004132D01*
X000447Y004085D01*
X000427Y004036D01*
X000411Y003986D01*
X000398Y003935D01*
X000389Y003883D01*
X000384Y003830D01*
X000382Y003778D01*
X000384Y003725D01*
X000390Y003672D01*
X000400Y003621D01*
X000413Y003570D01*
X000430Y003520D01*
X000451Y003471D01*
X000475Y003424D01*
X000502Y003379D01*
X000533Y003336D01*
X000566Y003295D01*
X000603Y003257D01*
X000642Y003222D01*
X000683Y003189D01*
X000727Y003160D01*
X000773Y003133D01*
X000820Y003110D01*
X000869Y003091D01*
X000919Y003075D01*
X000970Y003063D01*
X001023Y003054D01*
X001075Y003049D01*
X001128Y003048D01*
X001180Y003051D01*
M02*
