G75*
%MOIN*%
%OFA0B0*%
%FSLAX24Y24*%
%IPPOS*%
%LPD*%
%AMOC8*
5,1,8,0,0,1.08239X$1,22.5*
%
%ADD10C,0.0060*%
%ADD11C,0.0740*%
%ADD12C,0.0620*%
%ADD13C,0.0812*%
%ADD14C,0.0160*%
%ADD15C,0.0120*%
D10*
X009742Y006237D02*
X009799Y006237D01*
X009856Y006293D01*
X009856Y006577D01*
X009686Y006577D01*
X009629Y006520D01*
X009629Y006407D01*
X009686Y006350D01*
X009856Y006350D01*
X009488Y006350D02*
X009488Y006520D01*
X009431Y006577D01*
X009261Y006577D01*
X009261Y006350D01*
X009129Y006350D02*
X009015Y006350D01*
X009072Y006350D02*
X009072Y006577D01*
X009015Y006577D01*
X009072Y006690D02*
X009072Y006747D01*
X008874Y006690D02*
X008874Y006350D01*
X008760Y006463D01*
X008647Y006350D01*
X008647Y006690D01*
X008137Y006634D02*
X008137Y006520D01*
X008080Y006463D01*
X007910Y006463D01*
X007769Y006463D02*
X007769Y006407D01*
X007712Y006350D01*
X007599Y006350D01*
X007542Y006407D01*
X007599Y006520D02*
X007712Y006520D01*
X007769Y006463D01*
X007769Y006634D02*
X007712Y006690D01*
X007599Y006690D01*
X007542Y006634D01*
X007542Y006577D01*
X007599Y006520D01*
X007400Y006463D02*
X007400Y006690D01*
X007174Y006690D02*
X007174Y006463D01*
X007287Y006350D01*
X007400Y006463D01*
X007032Y006520D02*
X006805Y006520D01*
X006805Y006350D02*
X006805Y006690D01*
X007032Y006690D02*
X007032Y006350D01*
X007910Y006350D02*
X007910Y006690D01*
X008080Y006690D01*
X008137Y006634D01*
X010366Y006634D02*
X010366Y006577D01*
X010422Y006520D01*
X010536Y006520D01*
X010593Y006463D01*
X010593Y006407D01*
X010536Y006350D01*
X010422Y006350D01*
X010366Y006407D01*
X010366Y006634D02*
X010422Y006690D01*
X010536Y006690D01*
X010593Y006634D01*
X010734Y006690D02*
X010734Y006350D01*
X010961Y006350D02*
X010961Y006520D01*
X010904Y006577D01*
X010791Y006577D01*
X010734Y006520D01*
X011102Y006577D02*
X011159Y006577D01*
X011159Y006350D01*
X011102Y006350D02*
X011216Y006350D01*
X011348Y006407D02*
X011348Y006520D01*
X011405Y006577D01*
X011518Y006577D01*
X011575Y006520D01*
X011575Y006463D01*
X011348Y006463D01*
X011348Y006407D02*
X011405Y006350D01*
X011518Y006350D01*
X011716Y006350D02*
X011830Y006350D01*
X011773Y006350D02*
X011773Y006690D01*
X011716Y006690D01*
X011962Y006520D02*
X012018Y006577D01*
X012189Y006577D01*
X012189Y006690D02*
X012189Y006350D01*
X012018Y006350D01*
X011962Y006407D01*
X011962Y006520D01*
X011159Y006690D02*
X011159Y006747D01*
D11*
X010810Y001050D03*
X009810Y001050D03*
X008810Y001050D03*
X007810Y001050D03*
X006810Y001050D03*
X005810Y001050D03*
X004810Y001050D03*
X003810Y001050D03*
X002810Y001050D03*
X000950Y003970D03*
X000950Y004970D03*
X011810Y001050D03*
D12*
X011560Y002550D03*
X010560Y002550D03*
X009560Y002550D03*
X008560Y002550D03*
X007420Y002550D03*
X007420Y003880D03*
X006380Y005280D03*
X005380Y005280D03*
X005880Y006030D03*
X008560Y005550D03*
X009560Y005550D03*
X010560Y005550D03*
X011560Y005550D03*
X004420Y003880D03*
X004420Y002550D03*
D13*
X001490Y003491D03*
X001490Y005460D03*
D14*
X006820Y003380D02*
X006820Y001500D01*
X006810Y001240D01*
X006810Y001050D01*
X008924Y001383D02*
X008953Y001416D01*
X008980Y001450D01*
X009003Y001487D01*
X009023Y001526D01*
X009040Y001566D01*
X009053Y001608D01*
X009062Y001650D01*
X009068Y001693D01*
X009070Y001737D01*
X009070Y004853D01*
X009072Y004897D01*
X009078Y004940D01*
X009087Y004982D01*
X009100Y005024D01*
X009117Y005064D01*
X009137Y005103D01*
X009160Y005140D01*
X009187Y005174D01*
X009216Y005207D01*
X009216Y005206D02*
X009560Y005550D01*
X010206Y005196D02*
X010560Y005550D01*
X011216Y005206D02*
X011560Y005550D01*
X011216Y005207D02*
X011187Y005174D01*
X011160Y005140D01*
X011137Y005103D01*
X011117Y005064D01*
X011100Y005024D01*
X011087Y004982D01*
X011078Y004940D01*
X011072Y004897D01*
X011070Y004853D01*
X011070Y001737D01*
X011068Y001693D01*
X011062Y001650D01*
X011053Y001608D01*
X011040Y001566D01*
X011023Y001526D01*
X011003Y001487D01*
X010980Y001450D01*
X010953Y001416D01*
X010924Y001383D01*
X010924Y001384D02*
X010810Y001270D01*
X010810Y001050D01*
X009914Y001364D02*
X009810Y001260D01*
X009810Y001050D01*
X008810Y001050D02*
X008810Y001270D01*
X009914Y001363D02*
X009943Y001396D01*
X009970Y001430D01*
X009993Y001467D01*
X010013Y001506D01*
X010030Y001546D01*
X010043Y001588D01*
X010052Y001630D01*
X010058Y001673D01*
X010060Y001717D01*
X010060Y004843D01*
X010062Y004887D01*
X010068Y004930D01*
X010077Y004972D01*
X010090Y005014D01*
X010107Y005054D01*
X010127Y005093D01*
X010150Y005130D01*
X010177Y005164D01*
X010206Y005197D01*
X007420Y003880D02*
X007320Y003880D01*
X007276Y003878D01*
X007233Y003872D01*
X007191Y003863D01*
X007149Y003850D01*
X007109Y003833D01*
X007070Y003813D01*
X007033Y003790D01*
X006999Y003763D01*
X006966Y003734D01*
X006937Y003701D01*
X006910Y003667D01*
X006887Y003630D01*
X006867Y003591D01*
X006850Y003551D01*
X006837Y003509D01*
X006828Y003467D01*
X006822Y003424D01*
X006820Y003380D01*
D15*
X001743Y000233D02*
X000160Y000229D01*
X000163Y001203D01*
X000218Y001148D01*
X000479Y001040D01*
X001610Y001040D01*
X001620Y001039D01*
X001638Y001028D01*
X001649Y001010D01*
X001650Y001000D01*
X001650Y000459D01*
X001743Y000233D01*
X001737Y000249D02*
X000160Y000249D01*
X000160Y000367D02*
X001688Y000367D01*
X001650Y000486D02*
X000161Y000486D01*
X000161Y000604D02*
X001650Y000604D01*
X001650Y000723D02*
X000161Y000723D01*
X000162Y000841D02*
X001650Y000841D01*
X001650Y000960D02*
X000162Y000960D01*
X000162Y001078D02*
X000387Y001078D01*
X000218Y001148D02*
X000218Y001148D01*
X000169Y001197D02*
X000163Y001197D01*
X000459Y001509D02*
X000563Y001466D01*
X000620Y001460D01*
X001733Y001460D01*
X001947Y001337D01*
X001947Y001337D01*
X001947Y001337D01*
X002070Y001123D01*
X002070Y000600D01*
X002076Y000543D01*
X002119Y000439D01*
X002199Y000359D01*
X002303Y000316D01*
X002360Y000310D01*
X012230Y000310D01*
X012287Y000316D01*
X012391Y000359D01*
X012471Y000439D01*
X012515Y000543D01*
X012515Y000543D01*
X012520Y000600D01*
X012520Y006650D01*
X012515Y006707D01*
X012471Y006811D01*
X012391Y006891D01*
X012287Y006934D01*
X012230Y006940D01*
X000620Y006940D01*
X000563Y006934D01*
X000459Y006891D01*
X000379Y006811D01*
X000336Y006707D01*
X000330Y006650D01*
X000330Y001750D01*
X000336Y001693D01*
X000379Y001589D01*
X000459Y001509D01*
X000416Y001552D02*
X002689Y001552D01*
X002709Y001560D02*
X002521Y001482D01*
X002378Y001339D01*
X002300Y001151D01*
X002300Y000949D01*
X002378Y000761D01*
X002521Y000618D01*
X002709Y000540D01*
X002911Y000540D01*
X003099Y000618D01*
X003242Y000761D01*
X003310Y000924D01*
X003378Y000761D01*
X003521Y000618D01*
X003709Y000540D01*
X003911Y000540D01*
X004099Y000618D01*
X004242Y000761D01*
X004310Y000924D01*
X004378Y000761D01*
X004521Y000618D01*
X004709Y000540D01*
X004911Y000540D01*
X005099Y000618D01*
X005242Y000761D01*
X005301Y000902D01*
X005319Y000847D01*
X005357Y000772D01*
X005406Y000705D01*
X005465Y000646D01*
X005532Y000597D01*
X005607Y000559D01*
X005686Y000533D01*
X005768Y000520D01*
X005770Y000520D01*
X005770Y001010D01*
X005850Y001010D01*
X005850Y000520D01*
X005852Y000520D01*
X005934Y000533D01*
X006013Y000559D01*
X006088Y000597D01*
X006155Y000646D01*
X006214Y000705D01*
X006263Y000772D01*
X006301Y000847D01*
X006319Y000902D01*
X006378Y000761D01*
X006521Y000618D01*
X006709Y000540D01*
X006911Y000540D01*
X007099Y000618D01*
X007242Y000761D01*
X007310Y000924D01*
X007378Y000761D01*
X007521Y000618D01*
X007709Y000540D01*
X007911Y000540D01*
X008099Y000618D01*
X008242Y000761D01*
X008310Y000924D01*
X008378Y000761D01*
X008521Y000618D01*
X008709Y000540D01*
X008911Y000540D01*
X009099Y000618D01*
X009242Y000761D01*
X009310Y000924D01*
X009378Y000761D01*
X009521Y000618D01*
X009709Y000540D01*
X009911Y000540D01*
X010099Y000618D01*
X010242Y000761D01*
X010310Y000924D01*
X010378Y000761D01*
X010521Y000618D01*
X010709Y000540D01*
X010911Y000540D01*
X011099Y000618D01*
X011242Y000761D01*
X011310Y000924D01*
X011378Y000761D01*
X011521Y000618D01*
X011709Y000540D01*
X011911Y000540D01*
X012099Y000618D01*
X012242Y000761D01*
X012320Y000949D01*
X012320Y001151D01*
X012242Y001339D01*
X012099Y001482D01*
X011911Y001560D01*
X011709Y001560D01*
X011521Y001482D01*
X011378Y001339D01*
X011310Y001176D01*
X011242Y001339D01*
X011201Y001380D01*
X011290Y001594D01*
X011290Y002165D01*
X011314Y002148D01*
X011380Y002114D01*
X011450Y002092D01*
X011523Y002080D01*
X011540Y002080D01*
X011540Y002530D01*
X011580Y002530D01*
X011580Y002570D01*
X011540Y002570D01*
X011540Y003020D01*
X011523Y003020D01*
X011450Y003008D01*
X011380Y002986D01*
X011314Y002952D01*
X011290Y002935D01*
X011290Y004853D01*
X011295Y004908D01*
X011337Y005008D01*
X011372Y005051D01*
X011436Y005114D01*
X011436Y005114D01*
X011470Y005100D01*
X011650Y005100D01*
X011815Y005169D01*
X011941Y005295D01*
X012010Y005460D01*
X012010Y005640D01*
X011941Y005805D01*
X011815Y005931D01*
X011650Y006000D01*
X011470Y006000D01*
X011305Y005931D01*
X011179Y005805D01*
X011110Y005640D01*
X011110Y005460D01*
X011124Y005426D01*
X010996Y005298D01*
X010996Y005298D01*
X010960Y005261D01*
X010850Y004996D01*
X010850Y002896D01*
X010815Y002931D01*
X010650Y003000D01*
X010470Y003000D01*
X010305Y002931D01*
X010280Y002906D01*
X010280Y004843D01*
X010285Y004898D01*
X010327Y004998D01*
X010362Y005041D01*
X010426Y005104D01*
X010426Y005105D01*
X010436Y005114D01*
X010470Y005100D01*
X010650Y005100D01*
X010815Y005169D01*
X010941Y005295D01*
X011010Y005460D01*
X011010Y005640D01*
X010941Y005805D01*
X010815Y005931D01*
X010650Y006000D01*
X010470Y006000D01*
X010305Y005931D01*
X010179Y005805D01*
X010110Y005640D01*
X010110Y005460D01*
X010124Y005426D01*
X009986Y005288D01*
X009986Y005288D01*
X009950Y005251D01*
X009840Y004986D01*
X009840Y002906D01*
X009815Y002931D01*
X009650Y003000D01*
X009470Y003000D01*
X009305Y002931D01*
X009290Y002916D01*
X009290Y004853D01*
X009295Y004908D01*
X009295Y004908D01*
X009337Y005008D01*
X009372Y005051D01*
X009436Y005114D01*
X009470Y005100D01*
X009650Y005100D01*
X009815Y005169D01*
X009941Y005295D01*
X010010Y005460D01*
X010010Y005640D01*
X009941Y005805D01*
X009815Y005931D01*
X009650Y006000D01*
X009470Y006000D01*
X009305Y005931D01*
X009179Y005805D01*
X009110Y005640D01*
X009110Y005460D01*
X009124Y005426D01*
X008996Y005298D01*
X008996Y005298D01*
X008960Y005261D01*
X008850Y004996D01*
X008850Y002896D01*
X008815Y002931D01*
X008650Y003000D01*
X008470Y003000D01*
X008305Y002931D01*
X008179Y002805D01*
X008110Y002640D01*
X008110Y002460D01*
X008179Y002295D01*
X008305Y002169D01*
X008470Y002100D01*
X008650Y002100D01*
X008815Y002169D01*
X008850Y002204D01*
X008850Y001737D01*
X008845Y001682D01*
X008803Y001582D01*
X008785Y001560D01*
X008709Y001560D01*
X008521Y001482D01*
X008378Y001339D01*
X008310Y001176D01*
X008242Y001339D01*
X008099Y001482D01*
X007911Y001560D01*
X007709Y001560D01*
X007521Y001482D01*
X007378Y001339D01*
X007310Y001176D01*
X007242Y001339D01*
X007099Y001482D01*
X007040Y001507D01*
X007043Y001583D01*
X007040Y001586D01*
X007040Y002294D01*
X007165Y002169D01*
X007330Y002100D01*
X007510Y002100D01*
X007675Y002169D01*
X007801Y002295D01*
X007870Y002460D01*
X007870Y002640D01*
X007801Y002805D01*
X007675Y002931D01*
X007510Y003000D01*
X007330Y003000D01*
X007165Y002931D01*
X007040Y002806D01*
X007040Y003380D01*
X007045Y003435D01*
X007087Y003536D01*
X007108Y003556D01*
X007165Y003499D01*
X007330Y003430D01*
X007510Y003430D01*
X007675Y003499D01*
X007801Y003625D01*
X007870Y003790D01*
X007870Y003970D01*
X007801Y004135D01*
X007675Y004261D01*
X007510Y004330D01*
X007330Y004330D01*
X007165Y004261D01*
X007039Y004135D01*
X006992Y004024D01*
X006912Y003990D01*
X006710Y003788D01*
X006600Y003523D01*
X006600Y001515D01*
X006521Y001482D01*
X006378Y001339D01*
X006319Y001198D01*
X006301Y001253D01*
X006263Y001328D01*
X006214Y001395D01*
X006155Y001454D01*
X006088Y001503D01*
X006013Y001541D01*
X005934Y001567D01*
X005852Y001580D01*
X005850Y001580D01*
X005850Y001090D01*
X005770Y001090D01*
X005770Y001580D01*
X005768Y001580D01*
X005686Y001567D01*
X005607Y001541D01*
X005532Y001503D01*
X005465Y001454D01*
X005406Y001395D01*
X005357Y001328D01*
X005319Y001253D01*
X005301Y001198D01*
X005242Y001339D01*
X005099Y001482D01*
X004911Y001560D01*
X004709Y001560D01*
X004521Y001482D01*
X004378Y001339D01*
X004310Y001176D01*
X004242Y001339D01*
X004099Y001482D01*
X003911Y001560D01*
X003709Y001560D01*
X003521Y001482D01*
X003378Y001339D01*
X003310Y001176D01*
X003242Y001339D01*
X003099Y001482D01*
X002911Y001560D01*
X002709Y001560D01*
X002931Y001552D02*
X003689Y001552D01*
X003931Y001552D02*
X004689Y001552D01*
X004931Y001552D02*
X005640Y001552D01*
X005770Y001552D02*
X005850Y001552D01*
X005980Y001552D02*
X006600Y001552D01*
X006600Y001671D02*
X000345Y001671D01*
X000330Y001789D02*
X006600Y001789D01*
X006600Y001908D02*
X000330Y001908D01*
X000330Y002026D02*
X006600Y002026D01*
X006600Y002145D02*
X004617Y002145D01*
X004675Y002169D02*
X004510Y002100D01*
X004330Y002100D01*
X004165Y002169D01*
X004039Y002295D01*
X003970Y002460D01*
X003970Y002640D01*
X004039Y002805D01*
X004165Y002931D01*
X004330Y003000D01*
X004510Y003000D01*
X004675Y002931D01*
X004801Y002805D01*
X004870Y002640D01*
X004870Y002460D01*
X004801Y002295D01*
X004675Y002169D01*
X004769Y002263D02*
X006600Y002263D01*
X006600Y002382D02*
X004837Y002382D01*
X004870Y002500D02*
X006600Y002500D01*
X006600Y002619D02*
X004870Y002619D01*
X004830Y002737D02*
X006600Y002737D01*
X006600Y002856D02*
X004751Y002856D01*
X004572Y002974D02*
X006600Y002974D01*
X006600Y003093D02*
X001891Y003093D01*
X001922Y003123D02*
X001974Y003195D01*
X002014Y003274D01*
X002042Y003359D01*
X002053Y003431D01*
X001550Y003431D01*
X001550Y002928D01*
X001623Y002940D01*
X001707Y002967D01*
X001787Y003007D01*
X001859Y003060D01*
X001922Y003123D01*
X001982Y003211D02*
X006600Y003211D01*
X006600Y003330D02*
X002032Y003330D01*
X002053Y003551D02*
X001550Y003551D01*
X001550Y003431D01*
X001430Y003431D01*
X001430Y002928D01*
X001357Y002940D01*
X001273Y002967D01*
X001193Y003007D01*
X001121Y003060D01*
X001058Y003123D01*
X001006Y003195D01*
X000966Y003274D01*
X000938Y003359D01*
X000927Y003431D01*
X001430Y003431D01*
X001430Y003551D01*
X001276Y003551D01*
X001228Y003517D01*
X001153Y003479D01*
X001074Y003453D01*
X000992Y003440D01*
X000990Y003440D01*
X000990Y003551D01*
X000927Y003551D01*
X000938Y003624D01*
X000966Y003709D01*
X000990Y003757D01*
X000990Y003930D01*
X000910Y003930D01*
X000910Y003440D01*
X000908Y003440D01*
X000826Y003453D01*
X000747Y003479D01*
X000672Y003517D01*
X000605Y003566D01*
X000546Y003625D01*
X000497Y003692D01*
X000459Y003767D01*
X000433Y003846D01*
X000420Y003928D01*
X000420Y003930D01*
X000910Y003930D01*
X000910Y004010D01*
X000420Y004010D01*
X000420Y004012D01*
X000433Y004094D01*
X000459Y004173D01*
X000497Y004248D01*
X000546Y004315D01*
X000605Y004374D01*
X000672Y004423D01*
X000747Y004461D01*
X000802Y004479D01*
X000661Y004538D01*
X000518Y004681D01*
X000440Y004869D01*
X000440Y005071D01*
X000518Y005259D01*
X000661Y005402D01*
X000849Y005480D01*
X000944Y005480D01*
X000944Y005569D01*
X001027Y005769D01*
X001181Y005923D01*
X001381Y006006D01*
X001599Y006006D01*
X001799Y005923D01*
X001953Y005769D01*
X002036Y005569D01*
X002036Y005351D01*
X001953Y005151D01*
X001799Y004997D01*
X001599Y004914D01*
X001460Y004914D01*
X001460Y004869D01*
X001382Y004681D01*
X001239Y004538D01*
X001098Y004479D01*
X001153Y004461D01*
X001228Y004423D01*
X001295Y004374D01*
X001354Y004315D01*
X001403Y004248D01*
X001441Y004173D01*
X001467Y004094D01*
X001480Y004012D01*
X001480Y004010D01*
X001430Y004010D01*
X001430Y003930D01*
X001480Y003930D01*
X001480Y003928D01*
X001467Y003846D01*
X001441Y003767D01*
X001430Y003745D01*
X001430Y003552D01*
X001550Y003552D01*
X001550Y004055D01*
X001623Y004043D01*
X001707Y004016D01*
X001787Y003976D01*
X001859Y003923D01*
X001922Y003860D01*
X001974Y003788D01*
X002014Y003709D01*
X002042Y003624D01*
X002053Y003551D01*
X002051Y003567D02*
X004097Y003567D01*
X004039Y003625D02*
X004165Y003499D01*
X004330Y003430D01*
X004510Y003430D01*
X004675Y003499D01*
X004801Y003625D01*
X004870Y003790D01*
X004870Y003970D01*
X004801Y004135D01*
X004675Y004261D01*
X004510Y004330D01*
X004330Y004330D01*
X004165Y004261D01*
X004039Y004135D01*
X003970Y003970D01*
X003970Y003790D01*
X004039Y003625D01*
X004014Y003685D02*
X002022Y003685D01*
X001963Y003804D02*
X003970Y003804D01*
X003970Y003922D02*
X001860Y003922D01*
X001632Y004041D02*
X003999Y004041D01*
X004063Y004159D02*
X001446Y004159D01*
X001475Y004041D02*
X001550Y004041D01*
X001550Y003922D02*
X001479Y003922D01*
X001453Y003804D02*
X001550Y003804D01*
X001550Y003685D02*
X001430Y003685D01*
X001430Y003567D02*
X001550Y003567D01*
X001550Y003448D02*
X004287Y003448D01*
X004553Y003448D02*
X006600Y003448D01*
X006618Y003567D02*
X004743Y003567D01*
X004826Y003685D02*
X006667Y003685D01*
X006710Y003788D02*
X006710Y003788D01*
X006725Y003804D02*
X004870Y003804D01*
X004870Y003922D02*
X006844Y003922D01*
X006912Y003990D02*
X006912Y003990D01*
X006999Y004041D02*
X004841Y004041D01*
X004777Y004159D02*
X007063Y004159D01*
X007204Y004278D02*
X004636Y004278D01*
X004204Y004278D02*
X001382Y004278D01*
X001265Y004396D02*
X008850Y004396D01*
X008850Y004278D02*
X007636Y004278D01*
X007777Y004159D02*
X008850Y004159D01*
X008850Y004041D02*
X007841Y004041D01*
X007870Y003922D02*
X008850Y003922D01*
X008850Y003804D02*
X007870Y003804D01*
X007826Y003685D02*
X008850Y003685D01*
X008850Y003567D02*
X007743Y003567D01*
X007553Y003448D02*
X008850Y003448D01*
X008850Y003330D02*
X007040Y003330D01*
X007051Y003448D02*
X007287Y003448D01*
X007040Y003211D02*
X008850Y003211D01*
X008850Y003093D02*
X007040Y003093D01*
X007040Y002974D02*
X007268Y002974D01*
X007089Y002856D02*
X007040Y002856D01*
X007572Y002974D02*
X008408Y002974D01*
X008229Y002856D02*
X007751Y002856D01*
X007830Y002737D02*
X008150Y002737D01*
X008110Y002619D02*
X007870Y002619D01*
X007870Y002500D02*
X008110Y002500D01*
X008143Y002382D02*
X007837Y002382D01*
X007769Y002263D02*
X008211Y002263D01*
X008363Y002145D02*
X007617Y002145D01*
X007223Y002145D02*
X007040Y002145D01*
X007040Y002263D02*
X007071Y002263D01*
X007040Y002026D02*
X008850Y002026D01*
X008850Y001908D02*
X007040Y001908D01*
X007040Y001789D02*
X008850Y001789D01*
X008840Y001671D02*
X007040Y001671D01*
X007042Y001552D02*
X007689Y001552D01*
X007931Y001552D02*
X008689Y001552D01*
X008472Y001434D02*
X008148Y001434D01*
X008252Y001315D02*
X008368Y001315D01*
X008319Y001197D02*
X008301Y001197D01*
X008810Y001270D02*
X008924Y001384D01*
X009201Y001380D02*
X009290Y001594D01*
X009290Y002184D01*
X009305Y002169D01*
X009470Y002100D01*
X009650Y002100D01*
X009815Y002169D01*
X009840Y002194D01*
X009840Y001717D01*
X009835Y001662D01*
X009793Y001562D01*
X009792Y001560D01*
X009709Y001560D01*
X009521Y001482D01*
X009378Y001339D01*
X009310Y001176D01*
X009242Y001339D01*
X009201Y001380D01*
X009224Y001434D02*
X009472Y001434D01*
X009368Y001315D02*
X009252Y001315D01*
X009301Y001197D02*
X009319Y001197D01*
X009345Y000841D02*
X009275Y000841D01*
X009204Y000723D02*
X009416Y000723D01*
X009554Y000604D02*
X009066Y000604D01*
X008554Y000604D02*
X008066Y000604D01*
X008204Y000723D02*
X008416Y000723D01*
X008345Y000841D02*
X008275Y000841D01*
X007554Y000604D02*
X007066Y000604D01*
X007204Y000723D02*
X007416Y000723D01*
X007345Y000841D02*
X007275Y000841D01*
X007301Y001197D02*
X007319Y001197D01*
X007368Y001315D02*
X007252Y001315D01*
X007148Y001434D02*
X007472Y001434D01*
X006472Y001434D02*
X006176Y001434D01*
X006270Y001315D02*
X006368Y001315D01*
X005850Y001315D02*
X005770Y001315D01*
X005770Y001197D02*
X005850Y001197D01*
X005850Y001434D02*
X005770Y001434D01*
X005444Y001434D02*
X005148Y001434D01*
X005252Y001315D02*
X005350Y001315D01*
X005770Y000960D02*
X005850Y000960D01*
X005850Y000841D02*
X005770Y000841D01*
X005770Y000723D02*
X005850Y000723D01*
X005850Y000604D02*
X005770Y000604D01*
X005522Y000604D02*
X005066Y000604D01*
X005204Y000723D02*
X005393Y000723D01*
X005322Y000841D02*
X005275Y000841D01*
X004554Y000604D02*
X004066Y000604D01*
X004204Y000723D02*
X004416Y000723D01*
X004345Y000841D02*
X004275Y000841D01*
X004301Y001197D02*
X004319Y001197D01*
X004368Y001315D02*
X004252Y001315D01*
X004148Y001434D02*
X004472Y001434D01*
X003472Y001434D02*
X003148Y001434D01*
X003252Y001315D02*
X003368Y001315D01*
X003319Y001197D02*
X003301Y001197D01*
X003275Y000841D02*
X003345Y000841D01*
X003416Y000723D02*
X003204Y000723D01*
X003066Y000604D02*
X003554Y000604D01*
X002554Y000604D02*
X002070Y000604D01*
X002070Y000723D02*
X002416Y000723D01*
X002345Y000841D02*
X002070Y000841D01*
X002070Y000960D02*
X002300Y000960D01*
X002300Y001078D02*
X002070Y001078D01*
X002028Y001197D02*
X002319Y001197D01*
X002368Y001315D02*
X001959Y001315D01*
X001779Y001434D02*
X002472Y001434D01*
X004071Y002263D02*
X000330Y002263D01*
X000330Y002145D02*
X004223Y002145D01*
X004003Y002382D02*
X000330Y002382D01*
X000330Y002500D02*
X003970Y002500D01*
X003970Y002619D02*
X000330Y002619D01*
X000330Y002737D02*
X004010Y002737D01*
X004089Y002856D02*
X000330Y002856D01*
X000330Y002974D02*
X001259Y002974D01*
X001430Y002974D02*
X001550Y002974D01*
X001721Y002974D02*
X004268Y002974D01*
X001550Y003093D02*
X001430Y003093D01*
X001430Y003211D02*
X001550Y003211D01*
X001550Y003330D02*
X001430Y003330D01*
X001430Y003448D02*
X001042Y003448D01*
X000990Y003448D02*
X000910Y003448D01*
X000858Y003448D02*
X000330Y003448D01*
X000330Y003567D02*
X000604Y003567D01*
X000502Y003685D02*
X000330Y003685D01*
X000330Y003804D02*
X000447Y003804D01*
X000421Y003922D02*
X000330Y003922D01*
X000330Y004041D02*
X000425Y004041D01*
X000454Y004159D02*
X000330Y004159D01*
X000330Y004278D02*
X000518Y004278D01*
X000635Y004396D02*
X000330Y004396D01*
X000330Y004515D02*
X000717Y004515D01*
X000566Y004633D02*
X000330Y004633D01*
X000330Y004752D02*
X000488Y004752D01*
X000440Y004870D02*
X000330Y004870D01*
X000330Y004989D02*
X000440Y004989D01*
X000455Y005107D02*
X000330Y005107D01*
X000330Y005226D02*
X000504Y005226D01*
X000603Y005344D02*
X000330Y005344D01*
X000330Y005463D02*
X000806Y005463D01*
X000949Y005581D02*
X000330Y005581D01*
X000330Y005700D02*
X000998Y005700D01*
X001076Y005818D02*
X000330Y005818D01*
X000330Y005937D02*
X001214Y005937D01*
X001766Y005937D02*
X005432Y005937D01*
X005430Y005940D02*
X005499Y005775D01*
X005557Y005717D01*
X005490Y005738D01*
X005417Y005750D01*
X005400Y005750D01*
X005400Y005300D01*
X005850Y005300D01*
X005850Y005317D01*
X005838Y005390D01*
X005816Y005460D01*
X005782Y005526D01*
X005738Y005586D01*
X005712Y005612D01*
X005790Y005580D01*
X005970Y005580D01*
X006096Y005632D01*
X005999Y005535D01*
X005930Y005370D01*
X005930Y005190D01*
X005999Y005025D01*
X006125Y004899D01*
X006290Y004830D01*
X006470Y004830D01*
X006635Y004899D01*
X006761Y005025D01*
X006830Y005190D01*
X006830Y005370D01*
X006761Y005535D01*
X006635Y005661D01*
X006470Y005730D01*
X006290Y005730D01*
X006164Y005678D01*
X006261Y005775D01*
X006330Y005940D01*
X006330Y006120D01*
X006261Y006285D01*
X006135Y006411D01*
X005970Y006480D01*
X005790Y006480D01*
X005625Y006411D01*
X005499Y006285D01*
X005430Y006120D01*
X005430Y005940D01*
X005430Y006055D02*
X000330Y006055D01*
X000330Y006174D02*
X005452Y006174D01*
X005506Y006292D02*
X000330Y006292D01*
X000330Y006411D02*
X005624Y006411D01*
X006136Y006411D02*
X006635Y006411D01*
X006635Y006529D02*
X000330Y006529D01*
X000330Y006648D02*
X006635Y006648D01*
X006635Y006761D02*
X006735Y006860D01*
X006876Y006860D01*
X006919Y006817D01*
X006962Y006860D01*
X007103Y006860D01*
X007103Y006860D01*
X007103Y006860D01*
X007244Y006860D01*
X007287Y006817D01*
X007330Y006860D01*
X007471Y006860D01*
X007500Y006832D01*
X007528Y006860D01*
X007782Y006860D01*
X007811Y006832D01*
X007840Y006860D01*
X008151Y006860D01*
X008207Y006804D01*
X008307Y006704D01*
X008307Y006450D01*
X008250Y006393D01*
X008151Y006293D01*
X008080Y006293D01*
X008080Y006280D01*
X007981Y006180D01*
X007840Y006180D01*
X007811Y006209D01*
X007782Y006180D01*
X007528Y006180D01*
X007443Y006265D01*
X007357Y006180D01*
X007217Y006180D01*
X007160Y006237D01*
X007103Y006180D01*
X006962Y006180D01*
X006919Y006223D01*
X006876Y006180D01*
X006735Y006180D01*
X006635Y006280D01*
X006635Y006761D01*
X006641Y006766D02*
X000360Y006766D01*
X000452Y006885D02*
X008969Y006885D01*
X008944Y006860D02*
X008803Y006860D01*
X008760Y006817D01*
X008717Y006860D01*
X008576Y006860D01*
X008477Y006761D01*
X008477Y006280D01*
X008576Y006180D01*
X008717Y006180D01*
X008760Y006223D01*
X008803Y006180D01*
X008944Y006180D01*
X008944Y006180D01*
X008945Y006180D01*
X009331Y006180D01*
X009374Y006223D01*
X009417Y006180D01*
X009558Y006180D01*
X009572Y006194D01*
X009572Y006166D01*
X009672Y006067D01*
X009870Y006067D01*
X009926Y006123D01*
X010026Y006223D01*
X010026Y006647D01*
X009926Y006747D01*
X009615Y006747D01*
X009559Y006690D01*
X009558Y006690D01*
X009501Y006747D01*
X009242Y006747D01*
X009242Y006817D01*
X009142Y006917D01*
X009001Y006917D01*
X008944Y006860D01*
X008944Y006860D01*
X009175Y006885D02*
X011056Y006885D01*
X011089Y006917D02*
X010989Y006817D01*
X010989Y006732D01*
X010975Y006747D01*
X010904Y006747D01*
X010904Y006761D01*
X010804Y006860D01*
X010664Y006860D01*
X010635Y006832D01*
X010606Y006860D01*
X010352Y006860D01*
X010295Y006804D01*
X010196Y006704D01*
X010196Y006506D01*
X010210Y006492D01*
X010196Y006477D01*
X010196Y006336D01*
X010352Y006180D01*
X010606Y006180D01*
X010635Y006209D01*
X010664Y006180D01*
X010804Y006180D01*
X010847Y006223D01*
X010890Y006180D01*
X011031Y006180D01*
X011032Y006180D01*
X011286Y006180D01*
X011310Y006204D01*
X011334Y006180D01*
X011588Y006180D01*
X011617Y006209D01*
X011646Y006180D01*
X011900Y006180D01*
X011924Y006204D01*
X011948Y006180D01*
X012259Y006180D01*
X012359Y006280D01*
X012359Y006647D01*
X012359Y006761D01*
X012259Y006860D01*
X012118Y006860D01*
X012019Y006761D01*
X012019Y006747D01*
X011948Y006747D01*
X011943Y006742D01*
X011943Y006761D01*
X011843Y006860D01*
X011646Y006860D01*
X011546Y006761D01*
X011546Y006747D01*
X011334Y006747D01*
X011329Y006742D01*
X011329Y006817D01*
X011229Y006917D01*
X011089Y006917D01*
X011262Y006885D02*
X012398Y006885D01*
X012353Y006766D02*
X012490Y006766D01*
X012520Y006648D02*
X012359Y006648D01*
X012359Y006529D02*
X012520Y006529D01*
X012520Y006411D02*
X012359Y006411D01*
X012359Y006292D02*
X012520Y006292D01*
X012520Y006174D02*
X009977Y006174D01*
X010026Y006292D02*
X010240Y006292D01*
X010196Y006411D02*
X010026Y006411D01*
X010026Y006529D02*
X010196Y006529D01*
X010196Y006648D02*
X010026Y006648D01*
X010258Y006766D02*
X009242Y006766D01*
X009558Y006690D02*
X009558Y006690D01*
X009572Y006174D02*
X006308Y006174D01*
X006254Y006292D02*
X006635Y006292D01*
X006330Y006055D02*
X012520Y006055D01*
X012520Y005937D02*
X011803Y005937D01*
X011928Y005818D02*
X012520Y005818D01*
X012520Y005700D02*
X011985Y005700D01*
X012010Y005581D02*
X012520Y005581D01*
X012520Y005463D02*
X012010Y005463D01*
X011962Y005344D02*
X012520Y005344D01*
X012520Y005226D02*
X011872Y005226D01*
X011666Y005107D02*
X012520Y005107D01*
X012520Y004989D02*
X011329Y004989D01*
X011428Y005107D02*
X011454Y005107D01*
X011292Y004870D02*
X012520Y004870D01*
X012520Y004752D02*
X011290Y004752D01*
X011290Y004633D02*
X012520Y004633D01*
X012520Y004515D02*
X011290Y004515D01*
X011290Y004396D02*
X012520Y004396D01*
X012520Y004278D02*
X011290Y004278D01*
X011290Y004159D02*
X012520Y004159D01*
X012520Y004041D02*
X011290Y004041D01*
X011290Y003922D02*
X012520Y003922D01*
X012520Y003804D02*
X011290Y003804D01*
X011290Y003685D02*
X012520Y003685D01*
X012520Y003567D02*
X011290Y003567D01*
X011290Y003448D02*
X012520Y003448D01*
X012520Y003330D02*
X011290Y003330D01*
X011290Y003211D02*
X012520Y003211D01*
X012520Y003093D02*
X011290Y003093D01*
X011290Y002974D02*
X011357Y002974D01*
X011540Y002974D02*
X011580Y002974D01*
X011580Y003020D02*
X011580Y002570D01*
X012030Y002570D01*
X012030Y002587D01*
X012018Y002660D01*
X011996Y002730D01*
X011962Y002796D01*
X011918Y002856D01*
X011866Y002908D01*
X011806Y002952D01*
X011740Y002986D01*
X011670Y003008D01*
X011597Y003020D01*
X011580Y003020D01*
X011763Y002974D02*
X012520Y002974D01*
X012520Y002856D02*
X011919Y002856D01*
X011992Y002737D02*
X012520Y002737D01*
X012520Y002619D02*
X012025Y002619D01*
X012030Y002530D02*
X011580Y002530D01*
X011580Y002080D01*
X011597Y002080D01*
X011670Y002092D01*
X011740Y002114D01*
X011806Y002148D01*
X011866Y002192D01*
X011918Y002244D01*
X011962Y002304D01*
X011996Y002370D01*
X012018Y002440D01*
X012030Y002513D01*
X012030Y002530D01*
X012028Y002500D02*
X012520Y002500D01*
X012520Y002382D02*
X011999Y002382D01*
X011932Y002263D02*
X012520Y002263D01*
X012520Y002145D02*
X011799Y002145D01*
X011580Y002145D02*
X011540Y002145D01*
X011540Y002263D02*
X011580Y002263D01*
X011580Y002382D02*
X011540Y002382D01*
X011540Y002500D02*
X011580Y002500D01*
X011580Y002619D02*
X011540Y002619D01*
X011540Y002737D02*
X011580Y002737D01*
X011580Y002856D02*
X011540Y002856D01*
X010850Y002974D02*
X010712Y002974D01*
X010850Y003093D02*
X010280Y003093D01*
X010280Y003211D02*
X010850Y003211D01*
X010850Y003330D02*
X010280Y003330D01*
X010280Y003448D02*
X010850Y003448D01*
X010850Y003567D02*
X010280Y003567D01*
X010280Y003685D02*
X010850Y003685D01*
X010850Y003804D02*
X010280Y003804D01*
X010280Y003922D02*
X010850Y003922D01*
X010850Y004041D02*
X010280Y004041D01*
X010280Y004159D02*
X010850Y004159D01*
X010850Y004278D02*
X010280Y004278D01*
X010280Y004396D02*
X010850Y004396D01*
X010850Y004515D02*
X010280Y004515D01*
X010280Y004633D02*
X010850Y004633D01*
X010850Y004752D02*
X010280Y004752D01*
X010283Y004870D02*
X010850Y004870D01*
X010850Y004989D02*
X010323Y004989D01*
X010428Y005107D02*
X010454Y005107D01*
X010666Y005107D02*
X010896Y005107D01*
X010872Y005226D02*
X010945Y005226D01*
X010960Y005261D02*
X010960Y005261D01*
X010962Y005344D02*
X011043Y005344D01*
X011010Y005463D02*
X011110Y005463D01*
X011110Y005581D02*
X011010Y005581D01*
X010985Y005700D02*
X011135Y005700D01*
X011192Y005818D02*
X010928Y005818D01*
X010803Y005937D02*
X011317Y005937D01*
X011032Y006180D02*
X011032Y006180D01*
X010317Y005937D02*
X009803Y005937D01*
X009928Y005818D02*
X010192Y005818D01*
X010135Y005700D02*
X009985Y005700D01*
X010010Y005581D02*
X010110Y005581D01*
X010110Y005463D02*
X010010Y005463D01*
X010043Y005344D02*
X009962Y005344D01*
X009950Y005251D02*
X009950Y005251D01*
X009939Y005226D02*
X009872Y005226D01*
X009890Y005107D02*
X009666Y005107D01*
X009454Y005107D02*
X009428Y005107D01*
X009329Y004989D02*
X009841Y004989D01*
X009840Y004870D02*
X009292Y004870D01*
X009290Y004752D02*
X009840Y004752D01*
X009840Y004633D02*
X009290Y004633D01*
X009290Y004515D02*
X009840Y004515D01*
X009840Y004396D02*
X009290Y004396D01*
X009290Y004278D02*
X009840Y004278D01*
X009840Y004159D02*
X009290Y004159D01*
X009290Y004041D02*
X009840Y004041D01*
X009840Y003922D02*
X009290Y003922D01*
X009290Y003804D02*
X009840Y003804D01*
X009840Y003685D02*
X009290Y003685D01*
X009290Y003567D02*
X009840Y003567D01*
X009840Y003448D02*
X009290Y003448D01*
X009290Y003330D02*
X009840Y003330D01*
X009840Y003211D02*
X009290Y003211D01*
X009290Y003093D02*
X009840Y003093D01*
X009840Y002974D02*
X009712Y002974D01*
X009408Y002974D02*
X009290Y002974D01*
X008850Y002974D02*
X008712Y002974D01*
X008757Y002145D02*
X008850Y002145D01*
X009290Y002145D02*
X009363Y002145D01*
X009290Y002026D02*
X009840Y002026D01*
X009840Y001908D02*
X009290Y001908D01*
X009290Y001789D02*
X009840Y001789D01*
X009835Y001671D02*
X009290Y001671D01*
X009273Y001552D02*
X009689Y001552D01*
X010200Y001381D02*
X010280Y001574D01*
X010280Y002194D01*
X010305Y002169D01*
X010470Y002100D01*
X010650Y002100D01*
X010815Y002169D01*
X010850Y002204D01*
X010850Y001737D01*
X010845Y001682D01*
X010803Y001582D01*
X010785Y001560D01*
X010709Y001560D01*
X010521Y001482D01*
X010378Y001339D01*
X010310Y001176D01*
X010242Y001339D01*
X010200Y001381D01*
X010222Y001434D02*
X010472Y001434D01*
X010368Y001315D02*
X010252Y001315D01*
X010301Y001197D02*
X010319Y001197D01*
X010345Y000841D02*
X010275Y000841D01*
X010204Y000723D02*
X010416Y000723D01*
X010554Y000604D02*
X010066Y000604D01*
X011066Y000604D02*
X011554Y000604D01*
X011416Y000723D02*
X011204Y000723D01*
X011275Y000841D02*
X011345Y000841D01*
X011319Y001197D02*
X011301Y001197D01*
X011252Y001315D02*
X011368Y001315D01*
X011472Y001434D02*
X011224Y001434D01*
X011273Y001552D02*
X011689Y001552D01*
X011931Y001552D02*
X012520Y001552D01*
X012520Y001671D02*
X011290Y001671D01*
X011290Y001789D02*
X012520Y001789D01*
X012520Y001908D02*
X011290Y001908D01*
X011290Y002026D02*
X012520Y002026D01*
X012520Y001434D02*
X012148Y001434D01*
X012252Y001315D02*
X012520Y001315D01*
X012520Y001197D02*
X012301Y001197D01*
X012320Y001078D02*
X012520Y001078D01*
X012520Y000960D02*
X012320Y000960D01*
X012275Y000841D02*
X012520Y000841D01*
X012520Y000723D02*
X012204Y000723D01*
X012066Y000604D02*
X012520Y000604D01*
X012491Y000486D02*
X002100Y000486D01*
X002191Y000367D02*
X012399Y000367D01*
X010689Y001552D02*
X010271Y001552D01*
X010280Y001671D02*
X010840Y001671D01*
X010850Y001789D02*
X010280Y001789D01*
X010280Y001908D02*
X010850Y001908D01*
X010850Y002026D02*
X010280Y002026D01*
X010280Y002145D02*
X010363Y002145D01*
X010757Y002145D02*
X010850Y002145D01*
X011290Y002145D02*
X011321Y002145D01*
X010408Y002974D02*
X010280Y002974D01*
X009840Y002145D02*
X009757Y002145D01*
X006554Y000604D02*
X006098Y000604D01*
X006227Y000723D02*
X006416Y000723D01*
X006345Y000841D02*
X006298Y000841D01*
X001089Y003093D02*
X000330Y003093D01*
X000330Y003211D02*
X000998Y003211D01*
X000948Y003330D02*
X000330Y003330D01*
X000910Y003567D02*
X000929Y003567D01*
X000910Y003685D02*
X000958Y003685D01*
X000990Y003804D02*
X000910Y003804D01*
X000910Y003922D02*
X000990Y003922D01*
X001183Y004515D02*
X008850Y004515D01*
X008850Y004633D02*
X001334Y004633D01*
X001412Y004752D02*
X008850Y004752D01*
X008850Y004870D02*
X006566Y004870D01*
X006725Y004989D02*
X008850Y004989D01*
X008896Y005107D02*
X008666Y005107D01*
X008650Y005100D02*
X008815Y005169D01*
X008941Y005295D01*
X009010Y005460D01*
X009010Y005640D01*
X008941Y005805D01*
X008815Y005931D01*
X008650Y006000D01*
X008470Y006000D01*
X008305Y005931D01*
X008179Y005805D01*
X008110Y005640D01*
X008110Y005460D01*
X008179Y005295D01*
X008305Y005169D01*
X008470Y005100D01*
X008650Y005100D01*
X008454Y005107D02*
X006795Y005107D01*
X006830Y005226D02*
X008248Y005226D01*
X008158Y005344D02*
X006830Y005344D01*
X006791Y005463D02*
X008110Y005463D01*
X008110Y005581D02*
X006715Y005581D01*
X006543Y005700D02*
X008135Y005700D01*
X008192Y005818D02*
X006279Y005818D01*
X006328Y005937D02*
X008317Y005937D01*
X008803Y005937D02*
X009317Y005937D01*
X009192Y005818D02*
X008928Y005818D01*
X008985Y005700D02*
X009135Y005700D01*
X009110Y005581D02*
X009010Y005581D01*
X009010Y005463D02*
X009110Y005463D01*
X009043Y005344D02*
X008962Y005344D01*
X008960Y005261D02*
X008960Y005261D01*
X008945Y005226D02*
X008872Y005226D01*
X008477Y006292D02*
X008080Y006292D01*
X008268Y006411D02*
X008477Y006411D01*
X008477Y006529D02*
X008307Y006529D01*
X008307Y006648D02*
X008477Y006648D01*
X008482Y006766D02*
X008245Y006766D01*
X006217Y005700D02*
X006186Y005700D01*
X006045Y005581D02*
X005972Y005581D01*
X005969Y005463D02*
X005814Y005463D01*
X005788Y005581D02*
X005742Y005581D01*
X005400Y005581D02*
X005360Y005581D01*
X005360Y005700D02*
X005400Y005700D01*
X005360Y005750D02*
X005343Y005750D01*
X005270Y005738D01*
X005200Y005716D01*
X005134Y005682D01*
X005074Y005638D01*
X005022Y005586D01*
X004978Y005526D01*
X004944Y005460D01*
X004922Y005390D01*
X004910Y005317D01*
X004910Y005300D01*
X005360Y005300D01*
X005360Y005750D01*
X005481Y005818D02*
X001904Y005818D01*
X001982Y005700D02*
X005168Y005700D01*
X005018Y005581D02*
X002031Y005581D01*
X002036Y005463D02*
X004946Y005463D01*
X004914Y005344D02*
X002033Y005344D01*
X001984Y005226D02*
X004913Y005226D01*
X004910Y005243D02*
X004922Y005170D01*
X004944Y005100D01*
X004978Y005034D01*
X005022Y004974D01*
X005074Y004922D01*
X005134Y004878D01*
X005200Y004844D01*
X005270Y004822D01*
X005343Y004810D01*
X005360Y004810D01*
X005360Y005260D01*
X005400Y005260D01*
X005400Y005300D01*
X005360Y005300D01*
X005360Y005260D01*
X004910Y005260D01*
X004910Y005243D01*
X004942Y005107D02*
X001909Y005107D01*
X001778Y004989D02*
X005011Y004989D01*
X005149Y004870D02*
X001460Y004870D01*
X005360Y004870D02*
X005400Y004870D01*
X005400Y004810D02*
X005417Y004810D01*
X005490Y004822D01*
X005560Y004844D01*
X005626Y004878D01*
X005686Y004922D01*
X005738Y004974D01*
X005782Y005034D01*
X005816Y005100D01*
X005838Y005170D01*
X005850Y005243D01*
X005850Y005260D01*
X005400Y005260D01*
X005400Y004810D01*
X005611Y004870D02*
X006194Y004870D01*
X006035Y004989D02*
X005749Y004989D01*
X005818Y005107D02*
X005965Y005107D01*
X005930Y005226D02*
X005847Y005226D01*
X005846Y005344D02*
X005930Y005344D01*
X005400Y005344D02*
X005360Y005344D01*
X005360Y005226D02*
X005400Y005226D01*
X005400Y005107D02*
X005360Y005107D01*
X005360Y004989D02*
X005400Y004989D01*
X005400Y005463D02*
X005360Y005463D01*
X010899Y006766D02*
X010989Y006766D01*
X011329Y006766D02*
X011551Y006766D01*
X011938Y006766D02*
X012024Y006766D01*
M02*
