G75*
%MOIN*%
%OFA0B0*%
%FSLAX24Y24*%
%IPPOS*%
%LPD*%
%AMOC8*
5,1,8,0,0,1.08239X$1,22.5*
%
%ADD10C,0.0040*%
%ADD11C,0.0080*%
%ADD12C,0.0060*%
%ADD13C,0.0070*%
%ADD14R,0.0150X0.0200*%
%ADD15C,0.0050*%
%ADD16C,0.0030*%
D10*
X001209Y001590D02*
X001429Y001590D01*
X001319Y001590D02*
X001319Y001920D01*
X001209Y001810D01*
X001550Y001865D02*
X001605Y001920D01*
X001715Y001920D01*
X001770Y001865D01*
X001770Y001810D01*
X001550Y001590D01*
X001770Y001590D01*
X002000Y001590D02*
X002111Y001810D01*
X001890Y001810D02*
X002000Y001590D01*
X007472Y001680D02*
X007712Y001680D01*
X007592Y001680D02*
X007592Y002040D01*
X007472Y001920D01*
X007840Y001980D02*
X007900Y002040D01*
X008020Y002040D01*
X008080Y001980D01*
X008080Y001920D01*
X007840Y001680D01*
X008080Y001680D01*
X011700Y001760D02*
X011760Y001700D01*
X011880Y001700D01*
X011940Y001760D01*
X011940Y001820D01*
X011880Y001880D01*
X011760Y001880D01*
X011700Y001820D01*
X011700Y001760D01*
X011760Y001880D02*
X011700Y001940D01*
X011700Y002000D01*
X011760Y002060D01*
X011880Y002060D01*
X011940Y002000D01*
X011940Y001940D01*
X011880Y001880D01*
D11*
X002310Y001300D02*
X002310Y000800D01*
X002560Y000550D01*
X003060Y000550D01*
X003310Y000800D01*
X003560Y000550D01*
X004060Y000550D01*
X004310Y000800D01*
X004560Y000550D01*
X005060Y000550D01*
X005310Y000800D01*
X005560Y000550D01*
X006060Y000550D01*
X006310Y000800D01*
X006560Y000550D01*
X007060Y000550D01*
X007310Y000800D01*
X007560Y000550D01*
X008060Y000550D01*
X008310Y000800D01*
X008560Y000550D01*
X009060Y000550D01*
X009310Y000800D01*
X009560Y000550D01*
X010060Y000550D01*
X010310Y000800D01*
X010560Y000550D01*
X011060Y000550D01*
X011310Y000800D01*
X011560Y000550D01*
X012060Y000550D01*
X012310Y000800D01*
X012310Y001300D01*
X012060Y001550D01*
X011560Y001550D01*
X011310Y001300D01*
X011060Y001550D01*
X010560Y001550D01*
X010310Y001300D01*
X010060Y001550D01*
X009560Y001550D01*
X009310Y001300D01*
X009060Y001550D01*
X008560Y001550D01*
X008310Y001300D01*
X008060Y001550D01*
X007560Y001550D01*
X007310Y001300D01*
X007060Y001550D01*
X006560Y001550D01*
X006310Y001300D01*
X006060Y001550D01*
X005560Y001550D01*
X005310Y001300D01*
X005060Y001550D01*
X004560Y001550D01*
X004310Y001300D01*
X004060Y001550D01*
X003560Y001550D01*
X003310Y001300D01*
X003060Y001550D01*
X002560Y001550D01*
X002310Y001300D01*
X000760Y001580D02*
X000480Y001580D01*
X000630Y001820D02*
X000630Y002100D01*
X000584Y002271D02*
X000584Y006680D01*
X003144Y006680D01*
X003144Y002271D01*
X000584Y002271D01*
X000191Y002271D01*
X000191Y006680D01*
X000584Y006680D01*
X000490Y001960D02*
X000770Y001960D01*
D12*
X004920Y002250D02*
X004920Y002850D01*
X004922Y002867D01*
X004926Y002884D01*
X004933Y002900D01*
X004943Y002914D01*
X004956Y002927D01*
X004970Y002937D01*
X004986Y002944D01*
X005003Y002948D01*
X005020Y002950D01*
X005170Y002950D01*
X005220Y002900D01*
X006620Y002900D01*
X006670Y002950D01*
X006820Y002950D01*
X006837Y002948D01*
X006854Y002944D01*
X006870Y002937D01*
X006884Y002927D01*
X006897Y002914D01*
X006907Y002900D01*
X006914Y002884D01*
X006918Y002867D01*
X006920Y002850D01*
X006920Y002250D01*
X006918Y002233D01*
X006914Y002216D01*
X006907Y002200D01*
X006897Y002186D01*
X006884Y002173D01*
X006870Y002163D01*
X006854Y002156D01*
X006837Y002152D01*
X006820Y002150D01*
X006670Y002150D01*
X006620Y002200D01*
X005220Y002200D01*
X005170Y002150D01*
X005020Y002150D01*
X005003Y002152D01*
X004986Y002156D01*
X004970Y002163D01*
X004956Y002173D01*
X004943Y002186D01*
X004933Y002200D01*
X004926Y002216D01*
X004922Y002233D01*
X004920Y002250D01*
X005020Y003480D02*
X005170Y003480D01*
X005220Y003530D01*
X006620Y003530D01*
X006670Y003480D01*
X006820Y003480D01*
X006837Y003482D01*
X006854Y003486D01*
X006870Y003493D01*
X006884Y003503D01*
X006897Y003516D01*
X006907Y003530D01*
X006914Y003546D01*
X006918Y003563D01*
X006920Y003580D01*
X006920Y004180D01*
X006918Y004197D01*
X006914Y004214D01*
X006907Y004230D01*
X006897Y004244D01*
X006884Y004257D01*
X006870Y004267D01*
X006854Y004274D01*
X006837Y004278D01*
X006820Y004280D01*
X006670Y004280D01*
X006620Y004230D01*
X005220Y004230D01*
X005170Y004280D01*
X005020Y004280D01*
X005003Y004278D01*
X004986Y004274D01*
X004970Y004267D01*
X004956Y004257D01*
X004943Y004244D01*
X004933Y004230D01*
X004926Y004214D01*
X004922Y004197D01*
X004920Y004180D01*
X004920Y003580D01*
X004922Y003563D01*
X004926Y003546D01*
X004933Y003530D01*
X004943Y003516D01*
X004956Y003503D01*
X004970Y003493D01*
X004986Y003486D01*
X005003Y003482D01*
X005020Y003480D01*
X008060Y003800D02*
X008060Y002950D01*
X012060Y002950D01*
X012060Y005150D01*
X008060Y005150D01*
X008060Y004300D01*
X008090Y004298D01*
X008120Y004293D01*
X008149Y004284D01*
X008176Y004271D01*
X008202Y004256D01*
X008226Y004237D01*
X008247Y004216D01*
X008266Y004192D01*
X008281Y004166D01*
X008294Y004139D01*
X008303Y004110D01*
X008308Y004080D01*
X008310Y004050D01*
X008308Y004020D01*
X008303Y003990D01*
X008294Y003961D01*
X008281Y003934D01*
X008266Y003908D01*
X008247Y003884D01*
X008226Y003863D01*
X008202Y003844D01*
X008176Y003829D01*
X008149Y003816D01*
X008120Y003807D01*
X008090Y003802D01*
X008060Y003800D01*
D13*
X009145Y003875D02*
X009145Y004120D01*
X009267Y004242D01*
X009390Y004120D01*
X009390Y003875D01*
X009670Y003875D02*
X009670Y004242D01*
X009792Y004242D02*
X009547Y004242D01*
X009390Y004059D02*
X009145Y004059D01*
X009950Y004120D02*
X010072Y004120D01*
X010011Y004181D02*
X010011Y003936D01*
X010072Y003875D01*
X010218Y003875D02*
X010340Y003875D01*
X010279Y003875D02*
X010279Y004120D01*
X010218Y004120D01*
X010279Y004242D02*
X010279Y004304D01*
X010486Y004120D02*
X010670Y004120D01*
X010731Y004059D01*
X010731Y003875D01*
X010889Y003936D02*
X010950Y003875D01*
X011134Y003875D01*
X011134Y003814D02*
X011072Y003753D01*
X011011Y003753D01*
X011134Y003814D02*
X011134Y004120D01*
X010889Y004120D02*
X010889Y003936D01*
X010486Y003875D02*
X010486Y004120D01*
D14*
X006995Y003880D03*
X004845Y003880D03*
X004845Y002550D03*
X006995Y002550D03*
D15*
X006140Y002604D02*
X005968Y002490D01*
X006140Y002375D01*
X005968Y002375D02*
X005968Y002719D01*
X005720Y002719D02*
X005720Y002375D01*
X005606Y002375D02*
X005835Y002375D01*
X005606Y002604D02*
X005720Y002719D01*
X005720Y003715D02*
X005720Y004059D01*
X005606Y003944D01*
X005606Y003715D02*
X005835Y003715D01*
X005968Y003715D02*
X005968Y004059D01*
X006140Y003944D02*
X005968Y003830D01*
X006140Y003715D01*
X006705Y004630D02*
X005055Y004630D01*
X004993Y005180D02*
X004835Y005180D01*
X005767Y005180D02*
X005993Y005180D01*
X005055Y004630D02*
X005020Y004678D01*
X004987Y004728D01*
X004956Y004780D01*
X004929Y004834D01*
X004905Y004889D01*
X004885Y004946D01*
X004867Y005003D01*
X004853Y005061D01*
X004842Y005120D01*
X004835Y005180D01*
X004831Y005242D01*
X004830Y005305D01*
X004834Y005367D01*
X004841Y005429D01*
X004851Y005490D01*
X004866Y005551D01*
X004884Y005611D01*
X004905Y005670D01*
X004930Y005727D01*
X004958Y005782D01*
X004989Y005836D01*
X005024Y005888D01*
X005062Y005938D01*
X005102Y005985D01*
X005146Y006030D01*
X005191Y006073D01*
X005240Y006112D01*
X005290Y006149D01*
X005343Y006182D01*
X005397Y006213D01*
X005454Y006240D01*
X005511Y006263D01*
X005570Y006283D01*
X006190Y006283D02*
X006250Y006263D01*
X006309Y006239D01*
X006366Y006211D01*
X006421Y006180D01*
X006475Y006145D01*
X006526Y006108D01*
X006575Y006067D01*
X006621Y006023D01*
X006665Y005977D01*
X006706Y005928D01*
X006744Y005877D01*
X006778Y005824D01*
X006810Y005768D01*
X006837Y005711D01*
X006862Y005652D01*
X006882Y005592D01*
X006900Y005531D01*
X006913Y005469D01*
X006922Y005406D01*
X006928Y005343D01*
X006930Y005279D01*
X006928Y005215D01*
X006922Y005152D01*
X006913Y005089D01*
X006899Y005027D01*
X006882Y004966D01*
X006861Y004906D01*
X006837Y004847D01*
X006809Y004790D01*
X006777Y004734D01*
X006742Y004681D01*
X006705Y004630D01*
X006767Y005180D02*
X006925Y005180D01*
D16*
X007095Y005210D02*
X007095Y005355D01*
X007143Y005403D01*
X007240Y005403D01*
X007288Y005355D01*
X007288Y005210D01*
X007385Y005210D02*
X007095Y005210D01*
X007095Y005108D02*
X007385Y005108D01*
X007095Y004915D01*
X007385Y004915D01*
X007385Y005504D02*
X007095Y005504D01*
X007385Y005698D01*
X007095Y005698D01*
M02*
